PathFileType	4	(X/Y/Z)	/Users/itak/Documents/Research/Walk-IL/dataset/trc/00120_00007.trc
DataRate	CameraRate	NumFrames	NumMarkers	Units	OrigDataRate	OrigDataStartFrame	OrigNumFrames
100.000000	100.000000	4	53	mm	100.000000	361	723
Frame#	Time	RPSI			LPSI			L3			STRN			T10			C7			CLAV			RBAK			LBAK			LSHO			LUPA			LAEL			LAOL			LWTS			LWPS			LFRA			LIFD			LHPS			LHTS			RSHO			RUPA			RAEL			RAOL			RWTS			RWPS			RFRA			RIFD			RHTS			RHPS			RBHD			LFHD			RFHD			LBHD			LHIP			RHIP			RASI			LASI			LKNE			LTHI			LANK			LTIP			LTOE			LMT1			LMT5			LHEE			RKNE			RTHI			RANK			RTIP			RTOE			RMT1			RMT5			RHEE			
		X1	Y1	Z1	X2	Y2	Z2	X3	Y3	Z3	X4	Y4	Z4	X5	Y5	Z5	X6	Y6	Z6	X7	Y7	Z7	X8	Y8	Z8	X9	Y9	Z9	X10	Y10	Z10	X11	Y11	Z11	X12	Y12	Z12	X13	Y13	Z13	X14	Y14	Z14	X15	Y15	Z15	X16	Y16	Z16	X17	Y17	Z17	X18	Y18	Z18	X19	Y19	Z19	X20	Y20	Z20	X21	Y21	Z21	X22	Y22	Z22	X23	Y23	Z23	X24	Y24	Z24	X25	Y25	Z25	X26	Y26	Z26	X27	Y27	Z27	X28	Y28	Z28	X29	Y29	Z29	X30	Y30	Z30	X31	Y31	Z31	X32	Y32	Z32	X33	Y33	Z33	X34	Y34	Z34	X35	Y35	Z35	X36	Y36	Z36	X37	Y37	Z37	X38	Y38	Z38	X39	Y39	Z39	X40	Y40	Z40	X41	Y41	Z41	X42	Y42	Z42	X43	Y43	Z43	X44	Y44	Z44	X45	Y45	Z45	X46	Y46	Z46	X47	Y47	Z47	X48	Y48	Z48	X49	Y49	Z49	X50	Y50	Z50	X51	Y51	Z51	X52	Y52	Z52	X53	Y53	Z53	

362	3.61	522.4283447265625	1092.591796875	-818.2677001953125	476.1010131835938	1085.5732421875	-692.4795532226562	506.1897277832031	1126.284545898438	-753.218994140625	288.5567016601562	1311.98046875	-827.7822875976562	526.2218627929688	1275.091430664062	-758.501953125	477.8608093261719	1565.720336914062	-743.340576171875	310.9328002929688	1447.929077148438	-803.7305297851562	565.9520874023438	1391.927612304688	-819.6867065429688	459.5450134277344	1539.519165039062	-644.5741577148438	360.1104736328125	1515.069580078125	-600.1940307617188	389.0626831054688	1384.8173828125	-530.6865234375	426.4186706542969	1172.042724609375	-511.3222351074219	496.6595458984375	1176.001831054688	-566.8721313476562	397.0126647949219	896.2353515625	-555.0116577148438	481.8392333984375	893.9592895507812	-524.6245727539062	438.8572998046875	1055.895263671875	-505.67041015625	442.027587890625	707.4063110351562	-580.913330078125	474.4919128417969	812.7947387695312	-524.3095703125	409.0713195800781	804.3444213867188	-545.3287963867188	470.8905029296875	1555.409301757812	-933.3151245117188	506.0846862792969	1487.681274414062	-995.3015747070312	515.9805908203125	1197.331909179688	-1052.3310546875	503.3009643554688	1183.06494140625	-956.6951293945312	353.6636047363281	969.24853515625	-1099.17333984375	433.3734436035156	948.4173583984375	-1115.191528320312	491.2324829101562	1127.864135742188	-1081.590087890625	309.5329284667969	779.3902587890625	-1114.975219726562	315.6130981445312	867.4713134765625	-1127.155639648438	388.5296020507812	855.5053100585938	-1141.7685546875	402.7815551757812	1752.891723632812	-829.6743774414062	268.733154296875	1760.981811523438	-654.692626953125	235.6902313232422	1793.29443359375	-777.8953247070312	440.9532470703125	1726.135009765625	-703.756103515625	344.60107421875	988.4644775390625	-634.8609619140625	461.8468933105469	998.6471557617188	-978.2970581054688	363.1500549316406	1061.223510742188	-966.1151733398438	263.5098266601562	1052.48974609375	-718.092529296875	187.2770843505859	522.7936401367188	-753.785888671875	253.2825775146484	644.5072631835938	-693.1126708984375	127.817138671875	29.76375007629395	-848.4503173828125	199.6415863037109	257.9744873046875	-772.7876586914062	-93.43994140625	78.04034423828125	-882.9832153320312	-23.05163764953613	65.66364288330078	-923.815673828125	11.05612087249756	45.56859970092773	-816.8680419921875	192.1168060302734	30.02872657775879	-916.7627563476562	548.8361206054688	512.6630859375	-948.8369750976562	477.2776794433594	788.0196533203125	-980.0841674804688	827.0828857421875	73.38495635986328	-823.200927734375	631.3733520507812	398.2585754394531	-930.9989624023438	609.7996215820312	39.64543914794922	-907.3501586914062	637.4185180664062	39.48452758789062	-841.1368408203125	733.8649291992188	34.65616989135742	-914.9072875976562	845.0928955078125	99.81221008300781	-752.609130859375	
363	3.62	510.454833984375	1093.292602539062	-820.37158203125	464.9449768066406	1086.974487304688	-694.108642578125	494.7090148925781	1127.423828125	-755.068603515625	276.85205078125	1313.6064453125	-827.9098510742188	515.1429443359375	1276.115356445312	-760.4954223632812	467.6687927246094	1566.857299804688	-744.605712890625	300.6750793457031	1449.339965820312	-803.7725830078125	554.7086791992188	1392.894409179688	-821.8320922851562	450.0517883300781	1540.47314453125	-645.6912841796875	350.9045104980469	1516.184326171875	-600.5810546875	379.8396606445312	1385.682495117188	-531.6134033203125	416.3859252929688	1172.6611328125	-513.0830688476562	486.2565612792969	1176.439819335938	-569.019775390625	385.4686889648438	897.0309448242188	-557.3125	470.5446166992188	894.39453125	-527.4747924804688	428.1820068359375	1056.421997070312	-507.8178405761719	429.8005981445312	708.126708984375	-584.1298217773438	462.8990478515625	813.2294311523438	-527.3546142578125	397.3914489746094	805.03369140625	-548.0164184570312	459.1995544433594	1556.660766601562	-934.5902099609375	494.0393371582031	1488.840087890625	-996.74951171875	504.834716796875	1198.225708007812	-1051.685302734375	492.0621643066406	1184.602661132812	-956.0789794921875	344.4482116699219	968.3991088867188	-1097.174194335938	424.4563293457031	948.248046875	-1113.051025390625	480.6100769042969	1128.415771484375	-1080.509643554688	302.2598571777344	777.9965209960938	-1111.670288085938	307.4444274902344	865.9697265625	-1124.513793945312	380.585693359375	854.8239135742188	-1138.9267578125	392.1986083984375	1754.352905273438	-829.9786376953125	259.6248168945312	1762.470703125	-653.7288208007812	225.6517944335938	1794.815063476562	-776.5960083007812	431.37939453125	1727.278442382812	-704.4153442382812	333.7144470214844	990.4783935546875	-635.1839599609375	448.0493469238281	999.0897827148438	-979.677734375	349.76513671875	1062.281372070312	-966.597900390625	252.2328796386719	1054.34521484375	-717.8687133789062	178.5391540527344	523.4157104492188	-754.2228393554688	243.2918853759766	646.1790771484375	-694.5452880859375	126.8912811279297	29.31016540527344	-848.4068603515625	193.8873596191406	258.3551635742188	-772.7021484375	-95.98744964599609	71.49900054931641	-884.7584228515625	-24.86911582946777	60.9459228515625	-925.1668090820312	9.359648704528809	43.17749404907227	-817.7656860351562	191.5014038085938	31.13628196716309	-916.8008422851562	533.2911376953125	512.5232543945312	-953.8618774414062	462.3466186523438	788.4139404296875	-982.6177978515625	824.9331665039062	80.68666839599609	-827.1810302734375	619.2391357421875	400.0961608886719	-936.0487060546875	610.04150390625	39.45008850097656	-907.4095458984375	637.0169067382812	40.27556610107422	-841.541748046875	732.705078125	35.20695877075195	-915.667724609375	842.3534545898438	110.4521331787109	-757.6156616210938	
364	3.63	498.4212646484375	1094.341186523438	-822.3721313476562	453.8165588378906	1088.732177734375	-695.6094970703125	483.1978759765625	1128.91748046875	-756.7970581054688	265.0649108886719	1315.601318359375	-827.8502807617188	504.0028991699219	1277.465087890625	-762.4566650390625	457.462890625	1568.291259765625	-745.8433837890625	290.1445922851562	1451.142700195312	-803.7080688476562	543.2821655273438	1394.162475585938	-824.0204467773438	440.6051025390625	1541.778198242188	-646.7940063476562	341.764892578125	1517.730346679688	-600.9066162109375	370.6159973144531	1387.001953125	-532.4286499023438	406.1583557128906	1173.7041015625	-514.6982421875	475.6586303710938	1177.257690429688	-571.0277709960938	373.4369506835938	898.29052734375	-559.4308471679688	458.7831420898438	895.2550048828125	-530.2006225585938	417.2352294921875	1057.366943359375	-509.8150939941406	416.8722839355469	709.26318359375	-587.123046875	450.7226257324219	814.0636596679688	-530.2206420898438	385.0953979492188	806.1847534179688	-550.5028686523438	447.371337890625	1558.284912109375	-935.7821655273438	481.8231201171875	1490.40673828125	-998.1627807617188	493.6740112304688	1199.565795898438	-1050.8662109375	480.7598266601562	1186.642822265625	-955.2723388671875	335.4140930175781	967.8797607421875	-1095.010498046875	415.7421875	948.4902954101562	-1110.69482421875	470.0286254882812	1129.39208984375	-1079.221923828125	295.3500061035156	776.8868408203125	-1108.042236328125	299.5667114257812	864.7322998046875	-1121.65185546875	372.9364929199219	854.4649047851562	-1135.814208984375	381.5514526367188	1756.152587890625	-830.1630249023438	250.4674224853516	1764.239135742188	-652.6453247070312	215.5792694091797	1796.588012695312	-775.1842651367188	421.8016662597656	1728.785400390625	-704.9912109375	322.8820495605469	992.8475952148438	-635.3170166015625	434.0750122070312	999.8306274414062	-980.8643188476562	336.1911315917969	1063.6826171875	-966.8006591796875	241.023681640625	1056.574340820312	-717.3389282226562	170.1455688476562	524.2728271484375	-754.5501708984375	233.6699371337891	648.0272827148438	-695.5613403320312	126.0444793701172	29.05436325073242	-848.3353271484375	188.2463836669922	258.9958801269531	-772.364501953125	-98.05660247802734	66.1005859375	-887.0375366210938	-26.16781234741211	57.12228012084961	-926.8403930664062	7.642686367034912	41.62710571289062	-818.8937377929688	191.0363006591797	32.1265869140625	-916.5413818359375	516.652099609375	512.5350341796875	-959.2691040039062	446.8891296386719	789.0542602539062	-985.1116943359375	822.0174560546875	88.94417572021484	-832.0115966796875	605.8490600585938	402.1494750976562	-941.657958984375	610.2755126953125	39.20102310180664	-907.5225219726562	636.4552612304688	41.15989303588867	-841.981689453125	731.2173461914062	36.02101516723633	-916.6123657226562	838.5686645507812	121.9305267333984	-763.6259155273438	
365	3.64	486.3846435546875	1095.67626953125	-824.2619018554688	442.7657470703125	1090.744018554688	-696.9879150390625	471.7108764648438	1130.680786132812	-758.4052124023438	253.233642578125	1317.866577148438	-827.6011962890625	492.8272094726562	1279.060546875	-764.3736572265625	447.2539367675781	1569.940307617188	-747.05078125	279.3795776367188	1453.245849609375	-803.5362548828125	531.7009887695312	1395.653564453125	-826.2367553710938	431.2086181640625	1543.361206054688	-647.8870239257812	332.6930541992188	1519.642944335938	-601.1795654296875	361.4077758789062	1388.716552734375	-533.1202392578125	395.8013000488281	1175.120727539062	-516.1502075195312	464.9174194335938	1178.410278320312	-572.8934936523438	360.9382629394531	899.9796752929688	-561.3573608398438	446.5561828613281	896.4700927734375	-532.7826538085938	406.0735778808594	1058.681274414062	-511.64990234375	403.2211303710938	710.7770385742188	-589.8963012695312	437.9736328125	815.2596435546875	-532.9191284179688	372.1785583496094	807.7662353515625	-552.7843627929688	435.4290161132812	1560.199951171875	-936.8865966796875	469.4625854492188	1492.303955078125	-999.53564453125	482.5176086425781	1201.281860351562	-1049.910888671875	469.4226989746094	1189.091430664062	-954.3018798828125	326.534912109375	967.6558837890625	-1092.720825195312	407.1914978027344	949.096435546875	-1108.1767578125	459.4941711425781	1130.732055664062	-1077.772827148438	288.751708984375	776.0342407226562	-1104.093872070312	291.9329833984375	863.740478515625	-1118.57568359375	365.5110473632812	854.3720703125	-1132.47021484375	370.8803405761719	1758.194213867188	-830.257568359375	241.3143920898438	1766.207153320312	-651.4802856445312	205.5076904296875	1798.544677734375	-773.6935424804688	412.2604675292969	1730.573974609375	-705.5091552734375	312.2418518066406	995.427001953125	-635.2763061523438	420.0264587402344	1000.822265625	-981.8641357421875	322.5051879882812	1065.363525390625	-966.7431030273438	229.9116821289062	1059.055908203125	-716.5317993164062	162.0906677246094	525.2785034179688	-754.8421020507812	224.3758087158203	649.9458618164062	-696.1712036132812	125.3319702148438	28.9500846862793	-848.2833862304688	182.7712554931641	259.80322265625	-771.880615234375	-99.68384552001953	61.68889617919922	-889.4550170898438	-27.05342292785645	54.07754135131836	-928.5961303710938	6.02777099609375	40.73092269897461	-820.0762939453125	190.6845092773438	32.94643020629883	-916.1046142578125	498.9511413574219	512.6634521484375	-965.0021362304688	431.0013122558594	789.9008178710938	-987.5463256835938	818.1803588867188	98.11315155029297	-837.7891845703125	591.12646484375	404.3258666992188	-947.8159790039062	610.3677978515625	38.86570739746094	-907.736083984375	635.6258544921875	42.19354248046875	-842.4909057617188	729.281005859375	37.17049789428711	-917.8162841796875	833.6061401367188	134.0789184570312	-770.72216796875	
